<svg xmlns:dc="http://purl.org/dc/elements/1.1/" xmlns:cc="http://creativecommons.org/ns#" xmlns:rdf="http://www.w3.org/1999/02/22-rdf-syntax-ns#" xmlns:svg="http://www.w3.org/2000/svg" xmlns="http://www.w3.org/2000/svg" xmlns:xlink="http://www.w3.org/1999/xlink" xmlns:sodipodi="http://sodipodi.sourceforge.net/DTD/sodipodi-0.dtd" xmlns:inkscape="http://www.inkscape.org/namespaces/inkscape" version="1.1" id="svg10" sodipodi:docname="Version final 1_sin fondo.svg" inkscape:version="1.0.2-2 (e86c870879, 2021-01-15)" viewBox="352 461.33 822.38 654.03">
    <path style="fill:#4d5e3e;stroke-width:1.33333" d="m 893.33333,1114.5419 c -16.46993,-1.6157 -36.43634,-7.0275 -48.7266,-13.2072 -23.59805,-11.8652 -38.42757,-29.6087 -47.3617,-56.668 -1.69486,-5.1334 -5.07262,-11.9752 -7.50612,-15.2042 -4.75188,-6.3052 -9.73891,-20.347 -9.73891,-27.4216 0,-3.5707 -0.95899,-5.00947 -5.38196,-8.07459 -14.77628,-10.23998 -32.02181,-42.83442 -43.18479,-81.62023 -5.65777,-19.65795 -11.476,-48.13944 -11.72005,-57.37219 -0.16612,-6.285 0.28544,-7.5122 4.28109,-11.63468 2.89272,-2.98452 7.4397,-5.59789 12.90294,-7.41593 4.63985,-1.54405 8.4361,-3.34304 8.4361,-3.99775 0,-1.6238 7.2566,-5.25886 10.49815,-5.25886 1.44683,0 4.47663,1.55333 6.73288,3.45185 3.29321,2.77105 4.10231,4.48039 4.10231,8.66667 0,9.72096 -8.71928,14.40942 -17.67484,9.50398 -5.06198,-2.77272 -5.18914,-2.7765 -10.90987,-0.3243 -3.18349,1.36461 -6.17645,3.10934 -6.65101,3.8772 -2.06371,3.33914 7.4437,46.22432 15.99704,72.15793 7.06421,21.41867 19.12784,44.73237 28.31581,54.72208 7.65629,8.32436 7.75549,8.38 12.18663,6.83529 5.41445,-1.88748 24.36528,-2.05121 30.59578,-0.26432 5.88686,1.68832 10.01508,-1.17009 18.14584,-12.56433 15.59552,-21.85516 32.76603,-70.76249 38.11715,-108.57032 1.96392,-13.87588 2.17401,-13.41993 -7.89027,-17.1236 -3.9225,-1.44348 -4.87174,-1.30852 -8.2229,1.16911 -7.99986,5.91454 -19.751,-1.06306 -18.17247,-10.79046 1.62529,-10.01549 12.78711,-13.62318 20.44052,-6.60674 2.04743,1.87702 6.17717,4.10889 9.17724,4.9597 7.39727,2.09784 14.15548,6.8556 16.41573,11.5566 2.34622,4.8798 0.61416,19.52204 -5.20837,44.02988 -11.39504,47.96338 -27.63357,83.55639 -45.71921,100.21131 -6.3073,5.80833 -7.16062,7.28076 -8.75238,15.1025 -0.97004,4.7666 -3.34284,11.9666 -5.27289,16 -1.93005,4.0333 -3.36599,7.8136 -3.19096,8.4005 0.17504,0.587 -1.49184,2.5903 -3.70416,4.4519 -11.58592,9.7489 2.56475,35.5573 28.6078,52.1758 21.68187,13.8356 33.02856,16.2352 77.78643,16.4506 25.26692,0.1216 42.46064,-1.8148 66.25002,-7.461 67.43827,-16.006 80.02747,-21.7634 107.91117,-49.3512 13.9746,-13.8262 16.9374,-17.5397 21.808,-27.3333 8.1087,-16.305 7.7224,-27.25519 -1.0576,-29.97705 -28.7946,-8.92654 -41.0462,-44.57311 -23.8898,-69.50898 9.3054,-13.52494 22.2623,-19.75776 39.2834,-18.89685 17.617,0.89105 30.5426,9.11436 37.8894,24.10551 5.7532,11.73938 6.5766,21.8886 2.7877,34.36266 -2.5631,8.43848 -4.0293,10.78972 -11.1746,17.91966 -7.4757,7.45976 -12.475,10.35141 -23.2243,13.43349 -0.9167,0.26283 -1.6667,2.15968 -1.6667,4.21524 0,3.75963 -3.5187,17.00692 -6.821,25.67962 -2.7668,7.2662 -12.6033,22.1655 -19.5052,29.5442 -18.1167,19.3682 -47.223,36.1075 -80.4672,46.2775 -24.3961,7.4632 -39.64313,11.0915 -53.95095,12.8387 -3.62393,0.4425 -9.58898,1.3314 -13.25565,1.9753 -17.82125,3.1295 -50.50839,4.3543 -68.66667,2.5729 z m -84.59404,-93.0792 C 812.60859,1015.6158 816,1005.4918 816,999.78809 V 996 h -12 -12 v 5.319 c 0,9.1786 7.79089,25.3477 12.21351,25.3477 0.59509,0 2.63169,-2.3418 4.52578,-5.204 z m 334.89621,-45.65782 c 14.1216,-6.71379 21.9101,-27.14243 15.8646,-41.61135 -5.1451,-12.31401 -16.8259,-20.09489 -30.1668,-20.09489 -18.8614,0 -31.905,13.25163 -31.9707,32.4804 -0.084,24.61581 23.989,39.82027 46.2729,29.22584 z M 1123.3333,964.631 c -17.8274,-6.20099 -17.1736,-31.82712 0.9365,-36.70365 12.5909,-3.39039 23.7369,5.52865 23.7252,18.985 -0.012,13.20061 -12.2896,22.02208 -24.6617,17.71865 z m 10.6181,-13.91061 c 3.291,-3.63654 1.7803,-9.06894 -2.8447,-10.22975 -6.8235,-1.71259 -11.0273,5.10715 -6.3405,10.28599 2.9593,3.27005 6.1928,3.25025 9.1852,-0.0563 z M 380,916 v -54.66667 h -14 -14 v -8 -8 h 37.33333 37.33334 v 8 8 H 413.33333 400 V 916 970.66667 h -10 -10 z m 74.65804,53.50011 c -6.82755,-2.23871 -11.57133,-5.44118 -17.58783,-11.8733 -11.82381,-12.64061 -17.08253,-27.80025 -17.0505,-49.1526 0.0336,-22.39661 6.19572,-40.09314 18.10932,-52.00674 8.22626,-8.22628 15.03428,-11.07179 26.53764,-11.09183 25.42578,-0.0443 43.6954,23.21583 45.61902,58.08028 1.22076,22.12533 -4.31226,40.78993 -15.78009,53.23104 -8.79311,9.5394 -15.68939,12.98677 -26.97988,13.48696 -5.23915,0.23211 -11.0296,-0.0711 -12.86768,-0.67381 z m 18.75921,-17.85135 c 19.65902,-13.24821 23.40554,-59.74159 6.53096,-81.04748 -8.59914,-10.85731 -16.91916,-12.11496 -25.82697,-3.90401 -6.63593,6.11678 -10.76463,14.70712 -13.67805,28.45912 -4.55062,21.47992 3.68046,48.60062 17.2638,56.88274 5.6226,3.42826 10.21306,3.31419 15.71026,-0.39037 z m 51.91608,-43.54868 v -62.76675 h 25.73822 c 24.87113,0 25.96653,0.11374 32.51592,3.37748 C 594.41649,854.10715 600,863.88856 600,877.46296 c 0,8.54384 -2.48825,16.08932 -6.82964,20.71051 l -2.70235,2.87653 4.6432,6.08293 c 6.19686,8.11832 8.17202,14.33878 8.10763,25.53374 -0.0855,14.86398 -6.58955,26.38186 -19.02604,33.69281 -6.09495,3.583 -6.60891,3.64737 -32.52613,4.07393 l -26.33334,0.43342 z m 48.77339,44.05235 c 11.39227,-6.94699 12.81423,-28.16482 2.57381,-38.40523 -4.41357,-4.41357 -4.41474,-4.41387 -17.88053,-4.41387 H 545.33333 V 932 954.66667 l 12.33334,-0.005 c 9.71394,-0.004 13.20553,-0.53684 16.44005,-2.50925 z m -1.56704,-60.33718 c 9.21677,-4.19944 9.8164,-24.31976 0.86751,-29.10906 -1.41087,-0.75507 -8.30466,-1.37286 -15.31954,-1.37286 h -12.75432 v 16 16 h 11.93727 c 6.56549,0 13.43657,-0.68313 15.26908,-1.51808 z m 76.78503,77.68486 c -6.82755,-2.23871 -11.57134,-5.44118 -17.58783,-11.8733 -11.82381,-12.64061 -17.08253,-27.80025 -17.05051,-49.1526 0.0336,-22.39661 6.19572,-40.09314 18.10932,-52.00674 8.22627,-8.22628 15.03428,-11.07179 26.53764,-11.09183 25.42579,-0.0443 43.6954,23.21583 45.61903,58.08028 1.22076,22.12533 -4.31227,40.78993 -15.78009,53.23104 -8.79311,9.5394 -15.68939,12.98677 -26.97988,13.48696 -5.23915,0.23211 -11.0296,-0.0711 -12.86768,-0.67381 z m 18.75921,-17.85135 c 19.65901,-13.24821 23.40553,-59.74159 6.53096,-81.04748 -8.59915,-10.85731 -16.91916,-12.11496 -25.82697,-3.90401 -6.63594,6.11678 -10.76463,14.70712 -13.67806,28.45912 -4.55061,21.47992 3.68047,48.60062 17.2638,56.88274 5.6226,3.42826 10.21307,3.31419 15.71027,-0.39037 z m 238.58275,-44.31543 v -62 H 939.33333 972 V 852.66667 860 h -22.66667 -22.66666 v 18 18 H 949.33333 972 v 7.33333 7.33334 H 949.33333 926.66667 V 932 953.33333 H 949.33333 972 v 8 8 H 939.33333 906.66667 Z M 1011.6816,915 1011.3333,860.66667 997.66667,860.28669 984,859.90671 v -7.28668 -7.2867 h 37.3333 37.3334 v 7.2867 7.28668 L 1045,860.28669 1031.3333,860.66667 1030.985,915 l -0.3482,54.33333 h -9.3035 -9.3034 z M 406.66667,797.64784 c 0,-1.29368 1.17365,-5.56312 2.6081,-9.48763 1.43447,-3.92452 3.00259,-9.76605 3.48474,-12.98118 0.48213,-3.21514 1.40848,-5.8457 2.05854,-5.8457 0.65007,0 1.18195,-0.91262 1.18195,-2.02805 0,-1.89663 7.79708,-19.17459 9.31365,-20.63861 0.37983,-0.36667 1.56706,-2.36531 2.63828,-4.44142 1.07123,-2.0761 3.59156,-5.6761 5.60075,-8 2.00917,-2.32389 7.35004,-8.72525 11.86859,-14.22525 4.51854,-5.5 8.74726,-10.2 9.39713,-10.44444 0.64988,-0.24445 1.1816,-1.03448 1.1816,-1.75564 0,-0.72115 1.5,-3.27777 3.33333,-5.6814 1.83334,-2.40363 3.33334,-5.0636 3.33334,-5.91104 0,-0.84745 0.7,-1.54081 1.55556,-1.54081 0.85554,0 1.17666,-0.3789 0.71357,-0.84198 -0.46309,-0.46309 -0.14195,-2.11309 0.71365,-3.66666 0.8556,-1.55359 1.66504,-3.4247 1.79875,-4.15803 0.13372,-0.73333 0.98247,-4.03333 1.88611,-7.33333 0.90364,-3.3 1.91404,-7.8 2.24532,-10 3.85264,-25.5851 9.50616,-35.7856 29.11469,-52.53096 9.166,-7.82762 17.97235,-16.20808 17.97235,-17.1032 0,-0.47335 1.19557,-2.13327 2.65682,-3.68871 3.35798,-3.57439 4.6173,-12.57241 3.37851,-24.13995 -0.842,-7.86254 -1.48909,-9.44472 -5.08756,-12.43941 -9.86147,-8.20685 -19.98443,-18.33941 -25.25668,-25.28064 -3.1264,-4.11609 -6.01279,-7.7838 -6.41421,-8.15047 -1.62058,-1.48029 -11.62075,-18.3888 -14.19427,-24 -4.72723,-10.30705 -7.99279,-19.0874 -9.60329,-25.82108 -1.51823,-6.34786 -1.46494,-6.57064 2.47236,-10.33333 2.21322,-2.11507 4.9593,-3.84559 6.1024,-3.84559 3.9155,0 9.65954,3.92138 14.10097,9.62654 2.44349,3.13873 4.81513,6.0068 5.27031,6.37346 2.0936,1.68648 11.9228,22.07974 17.03005,35.33334 3.10848,8.06666 6.22767,15.70852 6.93152,16.9819 0.70385,1.27339 1.27973,2.92632 1.27973,3.6732 0,0.74688 1.5,4.46732 3.33334,8.26764 1.83333,3.80031 3.33333,7.4567 3.33333,8.12528 0,0.6686 0.92888,3.1731 2.06416,5.56554 3.17301,6.68662 18.61199,13.38765 38.69512,16.79494 11.97449,2.03159 60.88421,0.8365 75.90739,-1.85478 41.84994,-7.49704 53.19456,-9.06814 74,-10.24811 51.68622,-2.93137 59.63704,-3.80903 84.66666,-9.34597 7.23484,-1.60047 21.12239,-2.31304 63.2947,-3.24767 l 27.2947,-0.60491 3.7053,-5.43409 c 2.03792,-2.98875 3.7053,-5.96284 3.7053,-6.60909 0,-0.64624 0.50022,-1.37499 1.11159,-1.61944 0.61137,-0.24444 4.55968,-5.12782 8.77401,-10.85195 6.26911,-8.51504 8.00658,-10.12189 9.55507,-8.83675 1.15761,0.96074 1.89267,4.07708 1.89267,8.02416 0,14.22483 9.02257,28.27918 24.26928,37.80399 4.18144,2.61219 8.13926,4.74944 8.79516,4.74944 2.73038,0 10.02518,4.56768 14.26214,8.93033 3.24136,3.33754 4.96851,6.73516 6.03487,11.87179 0.82164,3.95785 2.50145,8.20752 3.73289,9.44372 2.77368,2.78437 31.85739,21.75416 33.35259,21.75416 0.5985,0 2.5015,1.50437 4.2289,3.34305 3.0772,3.27554 3.0886,3.3824 0.5657,5.29094 -1.4162,1.07132 -3.2847,1.96694 -4.1522,1.99028 -0.8675,0.0233 -5.4744,3.88238 -10.23756,8.57569 -8.99321,8.86137 -15.27879,11.51549 -22.46221,9.48479 -1.68092,-0.47519 -10.55623,-3.16303 -19.7229,-5.97299 -37.60786,-11.52837 -51.62728,-10.5374 -80.55049,5.6938 -5.25421,2.94857 -18.64292,15.59225 -33.46504,31.60287 -4.40855,4.76202 -10.55165,9.85824 -13.65137,11.3249 -3.09971,1.46667 -5.64272,3.38884 -5.65114,4.27151 -0.008,0.88267 3.88396,7.01468 8.64972,13.62672 4.76575,6.61203 10.31575,15.48985 12.33334,19.72849 3.42337,7.192 3.66832,8.87303 3.66832,25.17444 0,10.21191 -0.62602,18.79659 -1.50706,20.66667 -0.82886,1.75936 -2.62569,5.89884 -3.99293,9.19884 -2.8806,6.95267 -8.08527,13.33333 -10.87592,13.33333 -1.42248,0 -1.66279,-0.79473 -0.90713,-3 2.52741,-7.37592 2.19436,-22.29061 -0.70035,-31.36206 -6.12961,-19.209 -18.25776,-31.65556 -34.13347,-35.02962 -12.424,-2.64046 -48.83718,-5.363 -50.72904,-3.7929 -4.75113,3.94309 -16.99981,38.01817 -18.39889,51.18458 -1.87727,17.66652 -2.2368,19.33334 -4.17024,19.33334 -2.58005,0 -2.53536,-9.43962 0.11013,-23.26487 2.79706,-14.61719 6.29638,-25.43513 11.88632,-36.74593 2.61354,-5.28828 4.7167,-10.59924 4.67368,-11.80214 -0.0455,-1.271 -2.96902,-3.60378 -6.97993,-5.56941 -17.48995,-8.57139 -17.02739,-24.72308 1.52604,-53.28432 13.37827,-20.5946 15.42783,-29.63288 14.09804,-62.17063 -0.9384,-22.96116 -0.9222,-23.1627 1.86099,-23.1627 2.08049,0 4.80598,3.12956 10.52369,12.08388 4.24384,6.64613 10.76881,15.79613 14.49996,20.33333 12.22644,14.8678 14.45595,19.92689 14.50588,32.91612 0.0383,9.95589 -0.44039,12.30564 -3.93829,19.33333 -2.19003,4.4 -4.34183,8.3 -4.78179,8.66667 -1.45596,1.21343 -19.90303,26.62188 -19.90303,27.41387 0,0.42713 -0.75,1.61293 -1.66666,2.63509 -4.28908,4.78273 -9,11.96153 -9,13.71477 0,1.16475 14.02688,3.28846 32.66666,4.94583 26.93155,2.39463 44.74654,16.23085 52.10211,40.46575 1.02796,3.38692 1.87552,8.45202 1.88347,11.25578 0.012,4.13222 0.45637,5.01318 2.34776,4.65116 3.71838,-0.71172 5.89398,-11.77669 5.27257,-26.81593 -0.30323,-7.33837 -1.212,-13.73908 -2.07292,-14.6 -0.84315,-0.84315 -1.53299,-2.41045 -1.53299,-3.48292 0,-2.50643 -6.4097,-12.5784 -16.97278,-26.67039 -9.69563,-12.93474 -10.4888,-16.17968 -3.95492,-16.17968 5.50906,0 15.30836,-6.07102 20.43186,-12.6583 9.18514,-11.80928 28.09452,-28.75587 38.49584,-34.49996 2.2,-1.21495 4.9,-2.73182 6,-3.37084 3.31034,-1.92306 8.26251,-3.81366 16.07503,-6.13698 8.89588,-2.64549 27.06735,-2.17804 39.25831,1.0099 8.10088,2.11838 9.71301,2.56906 26.98312,7.54341 16.44577,4.73689 18.90916,4.22729 30.06965,-6.22056 5.28766,-4.95 9.61386,-9.44444 9.61386,-9.98764 0,-1.29412 -17.78843,-11.67903 -20.00517,-11.67903 -0.94022,0 -2.05485,-0.9 -2.47697,-2 -0.42211,-1.1 -1.68629,-2 -2.80932,-2 -1.12301,0 -2.04564,-0.45 -2.05027,-1 -0.004,-0.55 -1.81705,-2.02921 -4.02758,-3.28714 -4.0229,-2.28928 -9.29732,-11.99607 -9.29732,-17.11034 0,-3.48292 -6.73075,-10.74837 -12.87354,-13.89624 C 931.19989,558.46176 916.68816,543.70919 914.40717,530 c -0.84266,-5.06457 -4.98097,-2.72235 -11.71412,6.63001 -7.22381,10.03391 -7.97381,12.3657 -4.35972,13.55459 16.85747,5.54541 28.23674,20.71165 24.20899,32.26565 -1.92952,5.53502 -9.06215,9.55106 -16.95187,9.54476 -7.46309,-0.005 -13.08097,-3.0884 -18.43601,-10.11557 -3.40293,-4.46552 -3.79243,-5.97361 -3.55907,-13.78019 0.14414,-4.82125 0.44414,-10.26592 0.66667,-12.09925 l 0.40463,-3.33333 -38,0.48618 c -20.9,0.2674 -40.4,0.95532 -43.33334,1.52871 -2.93333,0.5734 -10.13333,2.03637 -16,3.25108 -16.40248,3.39615 -28.34884,4.65199 -57.33333,6.02707 -14.66667,0.69581 -31.16667,1.92285 -36.66667,2.72673 -13.60097,1.98795 -31.66674,5.23896 -37.33333,6.71829 -10.59615,2.76626 -29.00283,4.3353 -57.20399,4.87624 -24.51482,0.47023 -31.56733,0.17923 -39.33333,-1.623 -5.20448,-1.20778 -10.66268,-2.71114 -12.12935,-3.34081 -11.79121,-5.06216 -15.85321,-6.65049 -17.00793,-6.65049 -0.82703,0 -1.00759,2.47278 -0.47417,6.49381 0.85532,6.44779 -1.09416,19.50523 -3.32874,22.29553 -0.6413,0.8008 -0.80061,1.82143 -0.354,2.26804 1.09518,1.09518 -19.42081,21.30214 -26.1475,25.75366 -10.88576,7.20385 -20.23706,26.02736 -23.44292,47.18896 -0.38883,2.56666 -1.02939,5.56666 -1.42347,6.66666 -0.39408,1.1 -0.93164,3.61106 -1.19459,5.58012 -0.64377,4.82091 -5.9972,17.08655 -7.45753,17.08655 -0.64303,0 -1.16915,0.9 -1.16915,2 0,1.1 -0.6,2 -1.33333,2 -0.73333,0 -1.33333,0.9 -1.33333,2 0,1.1 -0.6,2 -1.33334,2 C 460.6,708 460,708.76665 460,709.70368 c 0,0.93703 -1.05,2.69576 -2.33333,3.90832 -1.28334,1.21255 -3.83334,4.1322 -5.66667,6.48811 -1.83333,2.3559 -4.83333,5.96425 -6.66667,8.01854 -8.623,9.66231 -17.36888,23.37992 -22.18133,34.7907 -7.01371,16.63012 -5.74823,17.30618 7.03308,3.75732 4.84253,-5.13334 9.43932,-9.33334 10.21508,-9.33334 0.77577,0 3.32355,-1.95 5.66172,-4.33333 8.63412,-8.80087 13.44528,-13 14.8948,-13 0.81827,0 1.68776,-0.53033 1.93221,-1.17852 C 463.44871,737.33703 479.40736,724 480.6238,724 c 0.495,0 1.73633,-0.75 2.75849,-1.66667 5.44782,-4.8855 18.36516,-14.02734 22.05672,-15.60993 3.67219,-1.57427 8.23943,-4.323 9.22766,-5.55352 1.63762,-2.03913 32.85801,-16.53852 38.59458,-17.92411 1.13964,-0.27525 5.6436,-1.72753 10.00879,-3.22726 4.36519,-1.49974 9.76519,-3.00742 12,-3.3504 2.23481,-0.34299 8.26329,-1.52124 13.39663,-2.61834 12.05358,-2.57609 57.52185,-4.11648 67.33333,-2.28114 4.03333,0.75448 9.73333,2.03248 12.66667,2.84001 2.93333,0.80753 6.48929,1.73689 7.90212,2.06525 3.54876,0.82478 5.25562,2.78984 4.38776,5.0515 -0.45664,1.18996 -3.64999,2.23568 -8.51039,2.78685 -4.27872,0.48523 -11.07949,1.79968 -15.11283,2.92103 -4.03333,1.12134 -7.93333,2.1965 -8.66666,2.38925 -0.73334,0.19275 -4.63334,1.79995 -8.66667,3.57156 -4.03333,1.7716 -7.56625,3.03144 -7.85093,2.79963 -0.28467,-0.2318 -0.88467,0.14917 -1.33334,0.84664 -0.44865,0.69745 -3.21573,2.54534 -6.14906,4.10642 -2.93334,1.5611 -7.73334,4.35115 -10.66667,6.20014 -2.93333,1.84897 -6.38333,3.7223 -7.66667,4.16294 C 605.05,711.95049 604,712.84104 604,713.48884 c 0,0.6478 -0.83581,1.17783 -1.85735,1.17783 -2.49634,0 -3.86741,3.92178 -2.11097,6.03818 0.77607,0.9351 2.88643,2.07048 4.68968,2.52307 1.80325,0.45259 3.27864,1.41145 3.27864,2.13081 0,0.71936 0.80596,1.30794 1.79103,1.30794 2.93014,0 18.27582,13.71929 22.20897,19.85518 1.1,1.71606 3.05,4.49531 4.33333,6.1761 1.28334,1.6808 2.33334,3.71136 2.33334,4.51236 0,0.801 0.63541,1.45636 1.41202,1.45636 0.77662,0 1.0412,0.6 0.58798,1.33333 -0.45323,0.73333 -0.18864,1.33333 0.58797,1.33333 0.77661,0 1.41203,0.83142 1.41203,1.84759 0,1.01617 0.8963,3.56617 1.99178,5.66667 2.45664,4.71041 2.59966,9.81908 0.27488,9.81908 -2.56818,0 -4.93004,-2.82676 -4.95749,-5.93334 -0.0213,-2.4184 -3.49995,-9.55233 -9.38204,-19.24089 -1.66364,-2.74023 -11.173,-12.44271 -18.45105,-18.82577 -2.5966,-2.2773 -10.14867,-6.76787 -18.5187,-11.0115 -3.36881,-1.708 -5.55516,-3.68952 -5.33333,-4.83368 0.33928,-1.74994 5.10752,-5.29285 10.37595,-7.70956 1.1,-0.50457 2.3,-1.2881 2.66666,-1.74116 1.31198,-1.62108 18.05874,-11.66981 21,-12.60085 1.65,-0.52229 3,-1.42696 3,-2.01039 0,-0.58341 5.25,-3.19822 11.66667,-5.81068 10.33225,-4.20662 15.17859,-5.80072 21.45551,-7.05732 2.84477,-0.56949 3.48996,-1.81273 1.8117,-3.49098 -2.11709,-2.1171 -48.15244,-1.9828 -62.26721,0.18162 -15.21533,2.3332 -36.91384,7.78603 -49.33333,12.39746 -12.66923,4.70414 -27.25815,11.42249 -29.36026,13.52069 -0.82636,0.82483 -3.85836,2.69968 -6.73777,4.16635 -2.87943,1.46666 -5.43531,3.11666 -5.67975,3.66666 -0.24445,0.55 -1.29445,1 -2.33333,1 -1.03889,0 -1.88889,0.49862 -1.88889,1.10803 0,0.60941 -1.6179,1.95941 -3.59534,3 -1.97742,1.04059 -5.06504,3.24197 -6.86136,4.89197 -1.79632,1.65 -4.01422,3 -4.92868,3 -0.91446,0 -2.00801,0.9 -2.43013,2 -0.42211,1.1 -1.54197,2 -2.48859,2 -0.94661,0 -2.47053,1.2 -3.38648,2.66667 -0.91594,1.46667 -2.41594,2.66667 -3.33333,2.66667 -0.91739,0 -2.41739,1.2 -3.33333,2.66666 C 471.39348,738.8 469.98988,740 469.19032,740 c -0.79957,0 -3.12731,1.65 -5.17276,3.66667 -2.04545,2.01666 -5.93195,5.46666 -8.63665,7.66666 -7.68362,6.24984 -34.04687,32.17567 -34.05375,33.48872 -0.004,0.64787 -1.80339,3.0954 -4,5.43898 -2.1966,2.34356 -3.99383,4.63641 -3.99383,5.09522 0,1.3661 -3.69716,4.64375 -5.23809,4.64375 -0.78572,0 -1.42857,-1.05847 -1.42857,-2.35216 z m 344.09282,-95.98117 c 3.90091,-5.68334 11.8683,-16.63334 17.70528,-24.33334 17.64007,-23.27028 21.22811,-34.64033 15.43535,-48.91276 -2.7246,-6.71297 -10.15076,-17.29178 -16.98284,-24.1926 -1.23784,-1.25029 -4.65061,-6.06234 -7.58395,-10.69344 L 754,585.11435 l -0.75547,24.44282 c -0.4155,13.44356 -1.42156,26.38566 -2.23569,28.76023 -1.60748,4.68857 -7.42477,15.66287 -16.08764,30.34927 -7.14165,12.10744 -10.44369,24.55237 -8.35992,31.50738 1.59377,5.31951 6.62087,9.81612 12.12285,10.84358 1.82372,0.34057 3.69094,0.70093 4.14934,0.8008 0.45841,0.0999 4.02512,-4.46843 7.92602,-10.15176 z M 912.53059,583.8194 c 1.82749,-0.83267 3.63941,-2.33923 4.02648,-3.34792 C 919.61865,572.49312 905.39516,556 895.45312,556 c -4.66515,0 -7.792,12.95895 -4.60564,19.08765 4.52157,8.69691 13.67209,12.3818 21.68311,8.73175 z M 514.93333,545.06667 c -0.88,-0.88 -1.6,-2.43295 -1.6,-3.45102 0,-1.01805 -1.8,-5.7399 -4,-10.49302 -2.2,-4.75311 -4,-9.2083 -4,-9.90042 0,-0.69212 -0.5384,-2.30025 -1.19645,-3.57364 -0.65805,-1.27338 -2.29149,-5.01524 -3.62987,-8.31524 -1.33837,-3.3 -2.80758,-6.3 -3.26492,-6.66666 -0.45732,-0.36667 -1.23876,-2.33042 -1.73653,-4.36388 -1.00385,-4.10091 -9.80315,-18.97832 -15.29772,-25.86459 -2.12585,-2.66432 -4.74019,-4.43813 -6.54117,-4.43816 -11.41872,-1.5e-4 10.37357,46.33537 33.39236,70.99996 3.9353,4.21667 7.67692,7.66667 8.3147,7.66667 0.63778,0 0.4396,-0.72 -0.4404,-1.6 z" id="path22"/>

</svg>